<svg width="60" height="60" viewBox="0 0 60 60" fill="none" xmlns="http://www.w3.org/2000/svg">
<path d="M48.3665 22.8366H18.3612V37.7375H48.3665V22.8366Z" fill="#333333"/>
<path d="M44.7352 39.2401H42.9195V36.2192H44.7352V39.2401ZM41.1039 39.2401H39.2882V36.2192H41.1039V39.2401ZM37.4726 39.2401H35.6569V36.2192H37.4726V39.2401ZM33.8413 39.2401H32.0256V36.2192H33.8413V39.2401ZM30.2256 39.2401H28.4099V36.2192H30.2256V39.2401ZM26.5943 39.2401H24.7786V36.2192H26.5943V39.2401ZM22.963 39.2401H21.1473V36.2192H22.963V39.2401ZM19.8638 35.0922H16.843V33.2766H19.8638V35.0922ZM49.8691 33.1827H46.8482V31.367H49.8691V33.1827ZM19.8638 31.4609H16.843V29.6453H19.8638V31.4609ZM49.8691 29.5514H46.8482V27.7357H49.8691V29.5514ZM19.8638 27.8296H16.843V26.014H19.8638V27.8296ZM44.203 24.3392H42.3874V21.3183H44.203V24.3392ZM40.5717 24.3392H38.7561V21.3183H40.5717V24.3392ZM36.9404 24.3392H35.1247V21.3183H36.9404V24.3392ZM33.3091 24.3392H31.4934V21.3183H33.3091V24.3392ZM29.6934 24.3392H27.8778V21.3183H29.6934V24.3392ZM26.0621 24.3392H24.2465V21.3183H26.0621V24.3392ZM22.4308 24.3392H20.6151V21.3183H22.4308V24.3392Z" fill="black"/>
<path d="M44.0465 12.287H43.5769V21.3653H44.0465V12.287Z" fill="black"/>
<path d="M53.1248 12.287H43.5769V12.9131H53.1248V12.287Z" fill="black"/>
<path d="M53.2187 13.5861C54.3144 13.5861 54.3144 11.8957 53.2187 11.8957C52.123 11.8957 52.123 13.5861 53.2187 13.5861Z" fill="black"/>
<path d="M40.1335 6.18262H39.5074V21.3653H40.1335V6.18262Z" fill="black"/>
<path d="M46.8639 6.18262H39.5074V6.65218H46.8639V6.18262Z" fill="black"/>
<path d="M46.8639 1.64351H46.3943V6.65222H46.8639V1.64351Z" fill="black"/>
<path d="M46.5665 2.52C47.6622 2.52 47.6622 0.829559 46.5665 0.829559C45.4709 0.829559 45.4709 2.52 46.5665 2.52Z" fill="black"/>
<path d="M36.2204 1.0174H35.5943V21.3653H36.2204V1.0174Z" fill="black"/>
<path d="M32.7769 10.0957H32.3073V21.3653H32.7769V10.0957Z" fill="black"/>
<path d="M28.8639 14.6348H28.3943V21.3653H28.8639V14.6348Z" fill="black"/>
<path d="M28.3943 14.6348H23.8552V15.1044H28.3943V14.6348Z" fill="black"/>
<path d="M23.8552 6.65221H23.2291V15.1044H23.8552V6.65221Z" fill="black"/>
<path d="M25.5769 17.4522H24.9508V21.3653H25.5769V17.4522Z" fill="black"/>
<path d="M24.9508 17.4522H19.316V17.9218H24.9508V17.4522Z" fill="black"/>
<path d="M22.1334 19.6435H21.5073V21.3653H22.1334V19.6435Z" fill="black"/>
<path d="M21.5073 19.6435H11.4899V20.2696H21.5073V19.6435Z" fill="black"/>
<path d="M11.396 21.0992C12.4916 21.0992 12.4916 19.4087 11.396 19.4087C10.316 19.4087 10.316 21.0992 11.396 21.0992Z" fill="black"/>
<path d="M19.003 18.7514C20.0986 18.7514 20.0986 17.0609 19.003 17.0609C17.9073 17.0609 17.9073 18.7514 19.003 18.7514Z" fill="black"/>
<path d="M23.3073 7.77916C24.403 7.77916 24.403 6.08871 23.3073 6.08871C22.2117 6.08871 22.2273 7.77916 23.3073 7.77916Z" fill="black"/>
<path d="M32.2134 11.0661C33.3091 11.0661 33.3091 9.37567 32.2134 9.37567C31.1334 9.37567 31.1334 11.0661 32.2134 11.0661Z" fill="black"/>
<path d="M35.6882 1.69044C36.7839 1.69044 36.7839 0 35.6882 0C34.5926 0 34.5926 1.69044 35.6882 1.69044Z" fill="black"/>
<path d="M58.1335 28.0957H49.6813V28.7218H58.1335V28.0957Z" fill="black"/>
<path d="M56.4118 32.0088H49.6813V32.6349H56.4118V32.0088Z" fill="black"/>
<path d="M56.4118 32.6348H55.9422V40.4609H56.4118V32.6348Z" fill="black"/>
<path d="M58.1022 29.3479C59.1979 29.3479 59.1979 27.6575 58.1022 27.6575C57.0065 27.6575 57.0065 29.3479 58.1022 29.3479Z" fill="black"/>
<path d="M56.2239 41.4471C57.3196 41.4471 57.3196 39.7566 56.2239 39.7566C55.1283 39.7566 55.1283 41.4471 56.2239 41.4471Z" fill="black"/>
<path d="M44.0465 39.3653H43.5769V48.9132H44.0465V39.3653Z" fill="black"/>
<path d="M53.1248 48.9132H43.5769V49.3827H53.1248V48.9132Z" fill="black"/>
<path d="M40.7595 39.3653H40.1334V52.8262H40.7595V39.3653Z" fill="black"/>
<path d="M49.2117 52.8262H40.1334V53.4523H49.2117V52.8262Z" fill="black"/>
<path d="M36.69 39.3653H36.2204V52.8262H36.69V39.3653Z" fill="black"/>
<path d="M32.8082 58.461H26.0465V57.8349H32.5734L32.7769 57.7254V38.7392H33.403V57.9601L32.8082 58.461Z" fill="black"/>
<path d="M29.49 38.7392H28.8639V53.9219H29.49V38.7392Z" fill="black"/>
<path d="M24.9195 56.7393H19.316V56.2697H24.6847L24.9508 56.0506V38.2697H25.5769V56.2697L24.9195 56.7393Z" fill="black"/>
<path d="M21.5543 47.1914H14.7769V46.7219H21.3195L21.5073 46.4871V38.2697H22.1334V46.7062L21.5543 47.1914Z" fill="black"/>
<path d="M53.0309 50.0714C54.1265 50.0714 54.1265 48.381 53.0309 48.381C51.9352 48.381 51.9352 50.0714 53.0309 50.0714Z" fill="black"/>
<path d="M48.9926 54.094C50.0883 54.094 50.0883 52.4036 48.9926 52.4036C47.8969 52.4036 47.9126 54.094 48.9926 54.094Z" fill="black"/>
<path d="M36.2517 53.8123C37.3474 53.8123 37.3474 52.1219 36.2517 52.1219C35.1561 52.1219 35.1561 53.8123 36.2517 53.8123Z" fill="black"/>
<path d="M28.9265 55.0332C30.0221 55.0332 30.0221 53.3427 28.9265 53.3427C27.8465 53.3427 27.8465 55.0332 28.9265 55.0332Z" fill="black"/>
<path d="M25.9369 59.2593C27.0326 59.2593 27.0326 57.5688 25.9369 57.5688C24.8412 57.5688 24.8412 59.2593 25.9369 59.2593Z" fill="black"/>
<path d="M19.0812 57.381C20.1769 57.381 20.1769 55.6906 19.0812 55.6906C18.0012 55.6906 18.0012 57.381 19.0812 57.381Z" fill="black"/>
<path d="M14.4951 47.9114C15.5908 47.9114 15.5908 46.221 14.4951 46.221C13.3995 46.221 13.3995 47.9114 14.4951 47.9114Z" fill="black"/>
<path d="M17.5943 26.374H6.32468V27.0001H17.5943V26.374Z" fill="black"/>
<path d="M18.2204 30.287H1.94205V30.9131H18.2204V30.287Z" fill="black"/>
<path d="M1.94206 20.7392H1.31597V30.9131H1.94206V20.7392Z" fill="black"/>
<path d="M7.57686 41.5566H6.95077V34.1062L7.24816 33.7305H18.2204V34.2001H7.48294L7.57686 34.341V41.5566Z" fill="black"/>
<path d="M1.55074 21.7566C2.64639 21.7566 2.64639 20.0661 1.55074 20.0661C0.470737 20.0661 0.470737 21.7566 1.55074 21.7566Z" fill="black"/>
<path d="M6.43424 27.5635C7.52989 27.5635 7.52989 25.8731 6.43424 25.8731C5.33858 25.8731 5.33858 27.5635 6.43424 27.5635Z" fill="black"/>
<path d="M6.99772 42.6523C8.09338 42.6523 8.09338 40.9618 6.99772 40.9618C5.90207 40.9775 5.90207 42.6523 6.99772 42.6523Z" fill="black"/>
</svg>
